<mxfile host="app.diagrams.net" modified="2021-10-25T06:04:17.674Z" agent="5.0 (Macintosh; Intel Mac OS X 10_15_7) AppleWebKit/537.36 (KHTML, like Gecko) Chrome/94.0.4606.81 Safari/537.36" etag="_oIRMGL_st7m7_-oTmvQ" version="15.5.9" type="github">
  <diagram id="R2lEEEUBdFMjLlhIrx00" name="Page-1">
    <mxGraphModel dx="788" dy="512" grid="1" gridSize="10" guides="1" tooltips="1" connect="1" arrows="1" fold="1" page="1" pageScale="1" pageWidth="850" pageHeight="1100" math="0" shadow="0" extFonts="Permanent Marker^https://fonts.googleapis.com/css?family=Permanent+Marker">
      <root>
        <mxCell id="0" />
        <mxCell id="1" parent="0" />
        <mxCell id="AgHacPSafh_XmUr7abcB-1" value="郵便番号" style="ellipse;whiteSpace=wrap;html=1;fillColor=#d5e8d4;strokeColor=none;" vertex="1" parent="1">
          <mxGeometry x="120" y="159" width="90" height="60" as="geometry" />
        </mxCell>
        <mxCell id="AgHacPSafh_XmUr7abcB-2" value="住所" style="ellipse;whiteSpace=wrap;html=1;fillColor=#d5e8d4;strokeColor=none;" vertex="1" parent="1">
          <mxGeometry x="320" y="159" width="90" height="60" as="geometry" />
        </mxCell>
        <mxCell id="AgHacPSafh_XmUr7abcB-15" style="edgeStyle=orthogonalEdgeStyle;rounded=0;orthogonalLoop=1;jettySize=auto;html=1;exitX=0.5;exitY=1;exitDx=0;exitDy=0;entryX=0.25;entryY=0;entryDx=0;entryDy=0;" edge="1" parent="1" source="AgHacPSafh_XmUr7abcB-3" target="AgHacPSafh_XmUr7abcB-6">
          <mxGeometry relative="1" as="geometry" />
        </mxCell>
        <mxCell id="AgHacPSafh_XmUr7abcB-3" value="" style="ellipse;whiteSpace=wrap;html=1;" vertex="1" parent="1">
          <mxGeometry x="490" y="130" width="120" height="80" as="geometry" />
        </mxCell>
        <mxCell id="AgHacPSafh_XmUr7abcB-16" style="edgeStyle=orthogonalEdgeStyle;rounded=0;orthogonalLoop=1;jettySize=auto;html=1;exitX=0.5;exitY=1;exitDx=0;exitDy=0;entryX=0.658;entryY=-0.033;entryDx=0;entryDy=0;entryPerimeter=0;" edge="1" parent="1" source="AgHacPSafh_XmUr7abcB-4" target="AgHacPSafh_XmUr7abcB-6">
          <mxGeometry relative="1" as="geometry" />
        </mxCell>
        <mxCell id="AgHacPSafh_XmUr7abcB-4" value="" style="ellipse;whiteSpace=wrap;html=1;" vertex="1" parent="1">
          <mxGeometry x="660" y="130" width="120" height="80" as="geometry" />
        </mxCell>
        <mxCell id="AgHacPSafh_XmUr7abcB-18" style="edgeStyle=orthogonalEdgeStyle;rounded=0;orthogonalLoop=1;jettySize=auto;html=1;exitX=0.5;exitY=1;exitDx=0;exitDy=0;entryX=0;entryY=0.5;entryDx=0;entryDy=0;" edge="1" parent="1" source="AgHacPSafh_XmUr7abcB-5" target="AgHacPSafh_XmUr7abcB-7">
          <mxGeometry relative="1" as="geometry" />
        </mxCell>
        <mxCell id="AgHacPSafh_XmUr7abcB-5" value="&lt;b&gt;&lt;font style=&quot;font-size: 23px&quot;&gt;顧客&lt;/font&gt;&lt;/b&gt;" style="rounded=1;whiteSpace=wrap;html=1;fillColor=#ffe6cc;strokeColor=none;" vertex="1" parent="1">
          <mxGeometry x="140" y="310" width="150" height="60" as="geometry" />
        </mxCell>
        <mxCell id="AgHacPSafh_XmUr7abcB-17" style="edgeStyle=orthogonalEdgeStyle;rounded=0;orthogonalLoop=1;jettySize=auto;html=1;exitX=0.5;exitY=1;exitDx=0;exitDy=0;entryX=1;entryY=0.5;entryDx=0;entryDy=0;" edge="1" parent="1" source="AgHacPSafh_XmUr7abcB-6" target="AgHacPSafh_XmUr7abcB-7">
          <mxGeometry relative="1" as="geometry" />
        </mxCell>
        <mxCell id="AgHacPSafh_XmUr7abcB-6" value="" style="rounded=1;whiteSpace=wrap;html=1;" vertex="1" parent="1">
          <mxGeometry x="580" y="310" width="120" height="60" as="geometry" />
        </mxCell>
        <mxCell id="AgHacPSafh_XmUr7abcB-7" value="" style="rhombus;whiteSpace=wrap;html=1;" vertex="1" parent="1">
          <mxGeometry x="400" y="370" width="80" height="80" as="geometry" />
        </mxCell>
        <mxCell id="AgHacPSafh_XmUr7abcB-19" value="メールアドレス" style="ellipse;whiteSpace=wrap;html=1;fillColor=#d5e8d4;strokeColor=none;" vertex="1" parent="1">
          <mxGeometry x="20" y="159" width="90" height="60" as="geometry" />
        </mxCell>
        <mxCell id="AgHacPSafh_XmUr7abcB-20" value="電話番号" style="ellipse;whiteSpace=wrap;html=1;fillColor=#d5e8d4;strokeColor=none;" vertex="1" parent="1">
          <mxGeometry x="220" y="159" width="90" height="60" as="geometry" />
        </mxCell>
        <mxCell id="AgHacPSafh_XmUr7abcB-35" value="&lt;u&gt;ユーザーID&lt;/u&gt;" style="ellipse;whiteSpace=wrap;html=1;fillColor=#d5e8d4;strokeColor=none;" vertex="1" parent="1">
          <mxGeometry x="70" y="79" width="90" height="60" as="geometry" />
        </mxCell>
        <mxCell id="AgHacPSafh_XmUr7abcB-36" value="パスワード" style="ellipse;whiteSpace=wrap;html=1;fillColor=#d5e8d4;strokeColor=none;" vertex="1" parent="1">
          <mxGeometry x="180" y="79" width="90" height="60" as="geometry" />
        </mxCell>
        <mxCell id="AgHacPSafh_XmUr7abcB-37" value="生年月日" style="ellipse;whiteSpace=wrap;html=1;fillColor=#d5e8d4;strokeColor=none;" vertex="1" parent="1">
          <mxGeometry x="290" y="79" width="90" height="60" as="geometry" />
        </mxCell>
        <mxCell id="AgHacPSafh_XmUr7abcB-42" value="" style="shape=singleArrow;direction=south;whiteSpace=wrap;html=1;fontSize=23;" vertex="1" parent="1">
          <mxGeometry x="202.5" y="230" width="25" height="60" as="geometry" />
        </mxCell>
        <mxCell id="AgHacPSafh_XmUr7abcB-43" value="契約番号" style="ellipse;whiteSpace=wrap;html=1;fillColor=#d5e8d4;strokeColor=none;" vertex="1" parent="1">
          <mxGeometry x="120" y="9" width="90" height="60" as="geometry" />
        </mxCell>
        <mxCell id="AgHacPSafh_XmUr7abcB-44" value="名前" style="ellipse;whiteSpace=wrap;html=1;fillColor=#d5e8d4;strokeColor=none;" vertex="1" parent="1">
          <mxGeometry x="230" y="9" width="90" height="60" as="geometry" />
        </mxCell>
      </root>
    </mxGraphModel>
  </diagram>
</mxfile>
